<mxfile host="app.diagrams.net" modified="2023-11-22T13:08:00.321Z" agent="Mozilla/5.0 (Windows NT 10.0; Win64; x64) AppleWebKit/537.36 (KHTML, like Gecko) Chrome/119.0.0.0 Safari/537.36" etag="SXHo7-6h1oeedLJeC2mm" version="22.1.3" type="github">
  <diagram name="페이지-1" id="8cBBCNP70xutFZgnKOgu">
    <mxGraphModel dx="1434" dy="758" grid="0" gridSize="10" guides="1" tooltips="1" connect="1" arrows="1" fold="1" page="1" pageScale="1" pageWidth="827" pageHeight="1169" math="0" shadow="0">
      <root>
        <mxCell id="0" />
        <mxCell id="1" parent="0" />
        <mxCell id="J_7l4Lp3ztfrTtNYamTu-2" value="요청에 대한 토큰 검증" style="text;html=1;strokeColor=none;fillColor=none;align=center;verticalAlign=middle;whiteSpace=wrap;rounded=0;" vertex="1" parent="1">
          <mxGeometry x="56" y="200" width="150" height="30" as="geometry" />
        </mxCell>
        <mxCell id="J_7l4Lp3ztfrTtNYamTu-3" value="AuthTokenFilter.class" style="rounded=1;whiteSpace=wrap;html=1;" vertex="1" parent="1">
          <mxGeometry x="210" y="195" width="150" height="40" as="geometry" />
        </mxCell>
        <mxCell id="J_7l4Lp3ztfrTtNYamTu-4" value="doFIlterInternal" style="ellipse;whiteSpace=wrap;html=1;" vertex="1" parent="1">
          <mxGeometry x="250" y="250" width="120" height="40" as="geometry" />
        </mxCell>
        <mxCell id="J_7l4Lp3ztfrTtNYamTu-5" value="request에서 토큰추출&lt;br&gt;1. 토큰이 유효한지 검증&lt;br&gt;2. 토큰에 포함된 userId로 사용자 정보가 유효한지 검증&lt;br&gt;3. 해당 사용자에 대한 권한 조회&lt;br&gt;4. 해당 정보들을 취합&amp;nbsp;" style="text;html=1;strokeColor=none;fillColor=none;align=left;verticalAlign=middle;whiteSpace=wrap;rounded=0;" vertex="1" parent="1">
          <mxGeometry x="10" y="250" width="230" height="110" as="geometry" />
        </mxCell>
        <mxCell id="J_7l4Lp3ztfrTtNYamTu-7" value="JwtUtils.class" style="rounded=1;whiteSpace=wrap;html=1;" vertex="1" parent="1">
          <mxGeometry x="525" y="195" width="150" height="40" as="geometry" />
        </mxCell>
        <mxCell id="J_7l4Lp3ztfrTtNYamTu-8" value="토큰 관련 Util 담당" style="text;html=1;strokeColor=none;fillColor=none;align=center;verticalAlign=middle;whiteSpace=wrap;rounded=0;" vertex="1" parent="1">
          <mxGeometry x="521" y="157" width="150" height="30" as="geometry" />
        </mxCell>
        <mxCell id="J_7l4Lp3ztfrTtNYamTu-9" value="generateJwtToken" style="ellipse;whiteSpace=wrap;html=1;" vertex="1" parent="1">
          <mxGeometry x="540" y="247" width="120" height="40" as="geometry" />
        </mxCell>
        <mxCell id="J_7l4Lp3ztfrTtNYamTu-10" value="토큰 생성" style="text;html=1;strokeColor=none;fillColor=none;align=center;verticalAlign=middle;whiteSpace=wrap;rounded=0;" vertex="1" parent="1">
          <mxGeometry x="680" y="255" width="150" height="30" as="geometry" />
        </mxCell>
        <mxCell id="J_7l4Lp3ztfrTtNYamTu-11" value="getUsernameFromJwtToken" style="ellipse;whiteSpace=wrap;html=1;" vertex="1" parent="1">
          <mxGeometry x="496.5" y="304" width="207" height="40" as="geometry" />
        </mxCell>
        <mxCell id="J_7l4Lp3ztfrTtNYamTu-12" value="토큰에서 username 추출" style="text;html=1;strokeColor=none;fillColor=none;align=center;verticalAlign=middle;whiteSpace=wrap;rounded=0;" vertex="1" parent="1">
          <mxGeometry x="711" y="309" width="150" height="30" as="geometry" />
        </mxCell>
        <mxCell id="J_7l4Lp3ztfrTtNYamTu-13" value="validateJwtToken" style="ellipse;whiteSpace=wrap;html=1;" vertex="1" parent="1">
          <mxGeometry x="537" y="360" width="145" height="40" as="geometry" />
        </mxCell>
        <mxCell id="J_7l4Lp3ztfrTtNYamTu-14" value="토큰 유효한지 검증" style="text;html=1;strokeColor=none;fillColor=none;align=center;verticalAlign=middle;whiteSpace=wrap;rounded=0;" vertex="1" parent="1">
          <mxGeometry x="713" y="365" width="150" height="30" as="geometry" />
        </mxCell>
      </root>
    </mxGraphModel>
  </diagram>
</mxfile>
